P3	4	5
255
28	46	43	184	86	157	128	108	18	81	220	201	
190	227	137	18	14	186	238	163	194	216	84	90	
120	118	12	90	166	88	69	184	93	228	212	186	
181	185	228	82	204	236	127	250	142	255	181	232	
236	179	233	249	113	166	85	137	245	158	155	208	
